<svg aria-hidden="true" style="width:0;height:0;position:absolute;overflow:hidden" xmlns="http://www.w3.org/2000/svg"><defs><symbol id="icon-film" viewBox="0 0 32 32"><path fill="none" stroke="#fff" style="stroke:var(--color1,#fff)" stroke-linejoin="round" stroke-linecap="round" stroke-width="2.667" d="M26.427 3.606H5.574c-1.605 0-2.907 1.239-2.907 2.768V26.23c0 1.529 1.301 2.768 2.907 2.768h20.853c1.605 0 2.907-1.239 2.907-2.768V6.374c0-1.529-1.301-2.768-2.907-2.768zM9.333 3.606v25.391M22.667 3.606v25.391M2.667 16.301h26.667M2.667 9.954h6.667M2.667 22.649h6.667M22.667 22.649h6.667M22.667 9.954h6.667"/></symbol><symbol id="icon-film-home" viewBox="0 0 32 32"><path fill="none" stroke="#818181" style="stroke:var(--color3,#818181)" stroke-linejoin="round" stroke-linecap="round" stroke-width="2.667" d="M26.427 2.667H5.574a2.907 2.907 0 0 0-2.907 2.907v20.853a2.907 2.907 0 0 0 2.907 2.907v0h20.853a2.907 2.907 0 0 0 2.907-2.907v0V5.574a2.907 2.907 0 0 0-2.907-2.907v0zm-17.094 0v26.667M22.667 2.667v26.667M2.667 16h26.667M2.667 9.333h6.667M2.667 22.667h6.667m13.333 0h6.667M22.667 9.333h6.667"/></symbol><symbol id="icon-search-2" viewBox="0 0 32 32"><path fill="none" stroke="#fff" style="stroke:var(--color2,#fff)" stroke-linejoin="round" stroke-linecap="round" stroke-width="2.667" d="M14.667 25.333c5.891 0 10.667-4.776 10.667-10.667S20.558 3.999 14.667 3.999v0C8.776 3.999 4 8.775 4 14.666s4.776 10.667 10.667 10.667v0zM28 28l-5.8-5.8"/></symbol><symbol id="icon-close" viewBox="0 0 32 32"><path fill="none" stroke-width="2" d="m2.519 2 26.963 28M2 29.481 30 2.518"/></symbol><symbol id="icon-exit" viewBox="0 0 48 48"><path d="M76 464C52 441 52 39 76 16 89 3 118 0 240 0c176 0 180 2 180 87 0 48-2 54-15 43-9-7-15-29-15-51V40H90v400h300v-39c0-22 6-44 15-51 13-11 15-5 15 43 0 85-4 87-180 87-122 0-151-3-164-16z" transform="matrix(.1 0 0 -.1 0 48)"/><path d="M298 328c-3-33-3-33-65-36l-63-3v-98l63-3c62-3 62-3 65-36 2-17 6-32 9-32 7 0 142 114 142 120S314 360 307 360c-3 0-7-15-9-32z" transform="matrix(.1 0 0 -.1 0 48)"/></symbol><symbol id="icon-sun" viewBox="0 0 32 32"><path d="M16 26a2 2 0 0 1 2 2v2a2 2 0 1 1-4 0v-2a2 2 0 0 1 2-2zm0-20a2 2 0 0 1-2-2V2a2 2 0 1 1 4 0v2a2 2 0 0 1-2 2zm14 8a2 2 0 1 1 0 4h-2a2 2 0 1 1 0-4h2zM6 16a2 2 0 0 1-2 2H2a2 2 0 1 1 0-4h2a2 2 0 0 1 2 2zm19.899 7.071 1.414 1.414a2 2 0 1 1-2.828 2.828l-1.414-1.414a2 2 0 1 1 2.828-2.828zM6.101 8.929 4.687 7.515a2 2 0 1 1 2.828-2.828l1.414 1.414a2 2 0 1 1-2.828 2.828zm19.798 0a2 2 0 1 1-2.828-2.828l1.414-1.414a2 2 0 1 1 2.828 2.828l-1.414 1.414zM6.101 23.071a2 2 0 1 1 2.828 2.828l-1.414 1.414a2 2 0 1 1-2.828-2.828l1.414-1.414zM16 8a8 8 0 1 0 0 16 8 8 0 0 0 0-16zm0 13a5 5 0 1 1 .001-10.001A5 5 0 0 1 16 21z"/></symbol><symbol id="icon-IcoMoon" viewBox="0 0 32 32"><path d="M8.111 16a3.701 3.701 0 1 1 7.402 0 3.701 3.701 0 0 1-7.402 0zM16 0C7.163 0 0 7.163 0 16s7.163 16 16 16c8.836 0 16-7.163 16-16S24.837 0 16 0zm-4.144 29.978C7.045 27.179 3.81 21.968 3.81 16S7.045 4.822 11.856 2.022c4.813 2.799 8.05 8.009 8.05 13.978s-3.237 11.179-8.05 13.978z"/></symbol><symbol id="icon-heart" viewBox="0 0 34 32"><path d="m17.231 31.705-2.412-2.412C5.859 21.367.001 16.025.001 9.478.001 4.136 4.136.001 9.478.001c2.929 0 5.858 1.378 7.754 3.618 1.895-2.24 4.825-3.618 7.754-3.618 5.342 0 9.477 4.135 9.477 9.477 0 6.548-5.858 11.889-14.818 19.815l-2.412 2.412z"/></symbol></defs></svg>